<svg xmlns="http://www.w3.org/2000/svg" viewBox="0 0 1024 1024" width="256" height="256" role="img" aria-labelledby="title5 desc5">
  <title id="title5">Amigo Secreto — Sticker</title>
  <desc id="desc5">Ilustración colorida: regalo con lazo volumétrico, placa con cara y antifaz.</desc>
  <defs>
    <linearGradient id="lg" x1="0" x2="1">
      <stop offset="0" stop-color="#7B61FF"></stop>
      <stop offset="1" stop-color="#FF6B6B"></stop>
    </linearGradient>
    <filter id="shadow" x="-20%" y="-20%" width="140%" height="140%">
      <feDropShadow dx="0" dy="18" stdDeviation="24" flood-color="#000" flood-opacity="0.18"></feDropShadow>
    </filter>
  </defs>

  <!-- Fondo pegatina (troquel) -->
  <g filter="url(#shadow)">
    <path d="M64 320c0-132 108-240 240-240h416c132 0 240 108 240 240v384c0 132-108 240-240 240H304c-132 0-240-108-240-240V320z" fill="url(#lg)"></path>
  </g>

  <!-- Caja principal -->
  <rect x="208" y="336" width="608" height="368" rx="56" fill="#fff"></rect>
  <!-- Lazo cruz -->
  <rect x="488" y="336" width="48" height="368" fill="#FF6B6B"></rect>
  <rect x="208" y="480" width="608" height="48" rx="12" fill="#FF6B6B"></rect>
  <!-- Lazo volumétrico -->
  <g transform="translate(416,248) rotate(-6)">
    <path d="M120 40c-26-22-72-20-92 6-20 26-6 62 20 90 26-28 66-60 72-96z" fill="#FFB703"></path>
    <path d="M48 40c26-22 72-20 92 6 20 26 6 62-20 90-26-28-66-60-72-96z" transform="translate(30,0) scale(-1,1)" fill="#FFD166"></path>
  </g>

  <!-- Placa caricatura -->
  <g transform="translate(720,220)">
    <circle cx="0" cy="0" r="112" fill="#fff"></circle>
    <circle cx="0" cy="0" r="96" fill="#6C5CE7"></circle>
    <circle cx="0" cy="-8" r="28" fill="#FFF"></circle>
    <path d="M-64 70 q64 -80 128 0" fill="#FFF"></path>
    <!-- Antifaz simpático -->
    <rect x="-52" y="-18" width="104" height="22" rx="11" fill="#2D3436"></rect>
    <circle cx="-22" cy="-8" r="8" fill="#FFF"></circle>
    <circle cx="22" cy="-8" r="8" fill="#FFF"></circle>
    <!-- Ojos (pupilas) -->
    <circle cx="-22" cy="-8" r="4" fill="#2D3436"></circle>
    <circle cx="22" cy="-8" r="4" fill="#2D3436"></circle>
  </g>

  <!-- Brillo y detalles -->
  <path d="M300 420 q20 -18 48 0" stroke="#fff" stroke-width="12" stroke-linecap="round" fill="none" opacity="0.18"></path>
</svg>
